# xmcd CD database file
#
# Track frame offsets:
#	150
#	144962
#	165413
#	177707
#	192368
#	216786
#	248680
#	276572
#
# Disc length: 3974 seconds
#
# Revision: 0
# Processed by: cddbd v1.5PL3 Copyright (c) Steve Scherf et al.
# Submitted via: CDex 1.51
#
DISCID=760f8408
DTITLE=James Asher - Lotus Path
DYEAR=2004
DGENRE=New Age
TTITLE0=James Asher - Lotus Path - 01 - Lotus Path
TTITLE1=James Asher - Lotus Path - 02 - Violet
TTITLE2=James Asher - Lotus Path - 03 - Ocean of Dreams
TTITLE3=James Asher - Lotus Path - 04 - Green
TTITLE4=James Asher - Lotus Path - 05 - Cedar Tree
TTITLE5=James Asher - Lotus Path - 06 - Silver
TTITLE6=James Asher - Lotus Path - 07 - Earthsong
TTITLE7=James Asher - Lotus Path - 08 - Far Over the Hill
EXTD=YEAR: 2004
EXTT0=
EXTT1=
EXTT2=
EXTT3=
EXTT4=
EXTT5=
EXTT6=
EXTT7=
PLAYORDER=
